<mxfile host="Electron" modified="2023-07-19T06:44:58.176Z" agent="Mozilla/5.0 (Macintosh; Intel Mac OS X 10_15_7) AppleWebKit/537.36 (KHTML, like Gecko) draw.io/21.6.1 Chrome/112.0.5615.204 Electron/24.6.1 Safari/537.36" etag="QgI2Dqy-Y9iGRx6j5VdG" version="21.6.1" type="device">
  <diagram name="Page-1" id="5f0bae14-7c28-e335-631c-24af17079c00">
    <mxGraphModel dx="2233" dy="1507" grid="1" gridSize="10" guides="1" tooltips="1" connect="1" arrows="1" fold="1" page="1" pageScale="1" pageWidth="4681" pageHeight="3300" background="none" math="0" shadow="1">
      <root>
        <mxCell id="0" />
        <mxCell id="1" parent="0" />
        <mxCell id="jPvqtnYLJRj_eyyXHJ-Q-1" value="Frontend Applications" style="rounded=1;whiteSpace=wrap;html=1;fillColor=#e1d5e7;strokeColor=#9673a6;" parent="1" vertex="1">
          <mxGeometry x="2170" y="190" width="191" height="130" as="geometry" />
        </mxCell>
        <mxCell id="jPvqtnYLJRj_eyyXHJ-Q-2" value="" style="shape=flexArrow;endArrow=classic;html=1;rounded=0;exitX=0.5;exitY=1;exitDx=0;exitDy=0;fillColor=#d5e8d4;strokeColor=#82b366;entryX=0.5;entryY=0;entryDx=0;entryDy=0;" parent="1" source="jPvqtnYLJRj_eyyXHJ-Q-1" edge="1" target="ogTgEn3JlV6PT00TCn8N-3">
          <mxGeometry width="50" height="50" relative="1" as="geometry">
            <mxPoint x="2450" y="320" as="sourcePoint" />
            <mxPoint x="2490" y="200" as="targetPoint" />
          </mxGeometry>
        </mxCell>
        <mxCell id="jPvqtnYLJRj_eyyXHJ-Q-3" value="Nginx (127.0.0.1:18888)" style="rounded=0;whiteSpace=wrap;html=1;fillColor=#dae8fc;strokeColor=#6c8ebf;" parent="1" vertex="1">
          <mxGeometry x="1530" y="790" width="160" height="60" as="geometry" />
        </mxCell>
        <mxCell id="t3KPmfPiuo9anuLnNl-u-4" value="" style="shape=flexArrow;endArrow=classic;html=1;rounded=0;exitX=0.5;exitY=1;exitDx=0;exitDy=0;fillColor=#d5e8d4;strokeColor=#82b366;" parent="1" edge="1">
          <mxGeometry width="50" height="50" relative="1" as="geometry">
            <mxPoint x="1838" y="820" as="sourcePoint" />
            <mxPoint x="1690" y="820" as="targetPoint" />
          </mxGeometry>
        </mxCell>
        <mxCell id="t3KPmfPiuo9anuLnNl-u-5" value="&lt;font style=&quot;font-size: 14px;&quot;&gt;Front end Request (e.g. Booking service)&lt;/font&gt;" style="text;html=1;strokeColor=none;fillColor=none;align=center;verticalAlign=middle;whiteSpace=wrap;rounded=0;fontSize=16;" parent="1" vertex="1">
          <mxGeometry x="2300" y="370" width="110" height="30" as="geometry" />
        </mxCell>
        <mxCell id="t3KPmfPiuo9anuLnNl-u-6" value="Nacos Service" style="swimlane;whiteSpace=wrap;html=1;fontSize=16;" parent="1" vertex="1">
          <mxGeometry x="1330" y="430" width="485" height="240" as="geometry" />
        </mxCell>
        <mxCell id="t3KPmfPiuo9anuLnNl-u-10" value="" style="edgeStyle=none;curved=1;rounded=0;orthogonalLoop=1;jettySize=auto;html=1;fontSize=12;startSize=8;endSize=8;exitX=1;exitY=0.25;exitDx=0;exitDy=0;" parent="t3KPmfPiuo9anuLnNl-u-6" source="t3KPmfPiuo9anuLnNl-u-1" target="t3KPmfPiuo9anuLnNl-u-9" edge="1">
          <mxGeometry relative="1" as="geometry" />
        </mxCell>
        <mxCell id="t3KPmfPiuo9anuLnNl-u-1" value="" style="rounded=1;whiteSpace=wrap;html=1;fillColor=#b0e3e6;strokeColor=#0e8088;" parent="t3KPmfPiuo9anuLnNl-u-6" vertex="1">
          <mxGeometry x="26.5" y="30" width="183.5" height="190" as="geometry" />
        </mxCell>
        <mxCell id="t3KPmfPiuo9anuLnNl-u-11" style="edgeStyle=none;curved=1;rounded=0;orthogonalLoop=1;jettySize=auto;html=1;exitX=0;exitY=0;exitDx=0;exitDy=105;exitPerimeter=0;fontSize=12;startSize=8;endSize=8;fillColor=#60a917;strokeColor=#2D7600;" parent="t3KPmfPiuo9anuLnNl-u-6" source="t3KPmfPiuo9anuLnNl-u-9" edge="1">
          <mxGeometry relative="1" as="geometry">
            <mxPoint x="202.5" y="150" as="targetPoint" />
          </mxGeometry>
        </mxCell>
        <mxCell id="t3KPmfPiuo9anuLnNl-u-9" value="Nacos Database&lt;br&gt;Clusters" style="shape=cylinder3;whiteSpace=wrap;html=1;boundedLbl=1;backgroundOutline=1;size=15;fontSize=16;fillColor=#f8cecc;strokeColor=#b85450;" parent="t3KPmfPiuo9anuLnNl-u-6" vertex="1">
          <mxGeometry x="320" y="45" width="110" height="150" as="geometry" />
        </mxCell>
        <mxCell id="t3KPmfPiuo9anuLnNl-u-102" value="Nacos1" style="ellipse;whiteSpace=wrap;html=1;fontSize=16;fillColor=#fff2cc;strokeColor=#d6b656;" parent="t3KPmfPiuo9anuLnNl-u-6" vertex="1">
          <mxGeometry x="36.5" y="80" width="83.5" height="70" as="geometry" />
        </mxCell>
        <mxCell id="t3KPmfPiuo9anuLnNl-u-107" value="Nacos2" style="ellipse;whiteSpace=wrap;html=1;fontSize=16;fillColor=#fff2cc;strokeColor=#d6b656;" parent="t3KPmfPiuo9anuLnNl-u-6" vertex="1">
          <mxGeometry x="120" y="80" width="83.5" height="70" as="geometry" />
        </mxCell>
        <mxCell id="t3KPmfPiuo9anuLnNl-u-108" value="Nacos3" style="ellipse;whiteSpace=wrap;html=1;fontSize=16;fillColor=#fff2cc;strokeColor=#d6b656;" parent="t3KPmfPiuo9anuLnNl-u-6" vertex="1">
          <mxGeometry x="36.5" y="150" width="83.5" height="70" as="geometry" />
        </mxCell>
        <mxCell id="t3KPmfPiuo9anuLnNl-u-109" value="Nacos4" style="ellipse;whiteSpace=wrap;html=1;fontSize=16;fillColor=#fff2cc;strokeColor=#d6b656;" parent="t3KPmfPiuo9anuLnNl-u-6" vertex="1">
          <mxGeometry x="120" y="150" width="83.5" height="70" as="geometry" />
        </mxCell>
        <mxCell id="t3KPmfPiuo9anuLnNl-u-110" value="Nacos Clusters" style="text;html=1;strokeColor=none;fillColor=none;align=center;verticalAlign=middle;whiteSpace=wrap;rounded=0;fontSize=16;" parent="t3KPmfPiuo9anuLnNl-u-6" vertex="1">
          <mxGeometry x="88.25" y="45" width="60" height="30" as="geometry" />
        </mxCell>
        <mxCell id="t3KPmfPiuo9anuLnNl-u-12" value="Web Services" style="swimlane;whiteSpace=wrap;html=1;fontSize=16;" parent="1" vertex="1">
          <mxGeometry x="1838" y="450" width="856" height="960" as="geometry" />
        </mxCell>
        <mxCell id="t3KPmfPiuo9anuLnNl-u-21" value="Booking Service (127.0.0.1:23003)" style="swimlane;whiteSpace=wrap;html=1;fontSize=16;" parent="t3KPmfPiuo9anuLnNl-u-12" vertex="1">
          <mxGeometry x="36" y="240" width="306" height="320" as="geometry" />
        </mxCell>
        <mxCell id="t3KPmfPiuo9anuLnNl-u-55" style="edgeStyle=none;curved=1;rounded=0;orthogonalLoop=1;jettySize=auto;html=1;exitX=0.25;exitY=1;exitDx=0;exitDy=0;entryX=0;entryY=0;entryDx=0;entryDy=15;entryPerimeter=0;fontSize=12;startSize=8;endSize=8;" parent="t3KPmfPiuo9anuLnNl-u-21" source="t3KPmfPiuo9anuLnNl-u-23" target="t3KPmfPiuo9anuLnNl-u-25" edge="1">
          <mxGeometry relative="1" as="geometry" />
        </mxCell>
        <mxCell id="t3KPmfPiuo9anuLnNl-u-58" style="edgeStyle=none;curved=1;rounded=0;orthogonalLoop=1;jettySize=auto;html=1;exitX=1;exitY=0.25;exitDx=0;exitDy=0;entryX=0.25;entryY=0;entryDx=0;entryDy=0;fontSize=12;startSize=8;endSize=8;" parent="t3KPmfPiuo9anuLnNl-u-21" source="t3KPmfPiuo9anuLnNl-u-23" target="t3KPmfPiuo9anuLnNl-u-57" edge="1">
          <mxGeometry relative="1" as="geometry" />
        </mxCell>
        <mxCell id="t3KPmfPiuo9anuLnNl-u-23" value="Tomcat Server" style="rounded=1;whiteSpace=wrap;html=1;fontSize=16;fillColor=#b1ddf0;strokeColor=#10739e;" parent="t3KPmfPiuo9anuLnNl-u-21" vertex="1">
          <mxGeometry x="17.5" y="40" width="105" height="50" as="geometry" />
        </mxCell>
        <mxCell id="t3KPmfPiuo9anuLnNl-u-56" style="edgeStyle=none;curved=1;rounded=0;orthogonalLoop=1;jettySize=auto;html=1;exitX=1;exitY=0;exitDx=0;exitDy=15;exitPerimeter=0;entryX=0.75;entryY=1;entryDx=0;entryDy=0;fontSize=12;startSize=8;endSize=8;fillColor=#60a917;strokeColor=#2D7600;" parent="t3KPmfPiuo9anuLnNl-u-21" source="t3KPmfPiuo9anuLnNl-u-25" target="t3KPmfPiuo9anuLnNl-u-23" edge="1">
          <mxGeometry relative="1" as="geometry" />
        </mxCell>
        <mxCell id="t3KPmfPiuo9anuLnNl-u-25" value="Booking Database&lt;br&gt;Clusters" style="shape=cylinder3;whiteSpace=wrap;html=1;boundedLbl=1;backgroundOutline=1;size=15;fontSize=16;fillColor=#fad9d5;strokeColor=#ae4132;" parent="t3KPmfPiuo9anuLnNl-u-21" vertex="1">
          <mxGeometry x="17.5" y="180" width="90" height="100" as="geometry" />
        </mxCell>
        <mxCell id="t3KPmfPiuo9anuLnNl-u-59" style="edgeStyle=none;curved=1;rounded=0;orthogonalLoop=1;jettySize=auto;html=1;exitX=0;exitY=0.25;exitDx=0;exitDy=0;entryX=0.923;entryY=0.967;entryDx=0;entryDy=0;entryPerimeter=0;fontSize=12;startSize=8;endSize=8;fillColor=#60a917;strokeColor=#2D7600;" parent="t3KPmfPiuo9anuLnNl-u-21" source="t3KPmfPiuo9anuLnNl-u-57" target="t3KPmfPiuo9anuLnNl-u-23" edge="1">
          <mxGeometry relative="1" as="geometry" />
        </mxCell>
        <mxCell id="t3KPmfPiuo9anuLnNl-u-57" value="Feign-API" style="rounded=1;whiteSpace=wrap;html=1;fontSize=16;fillColor=#d5e8d4;strokeColor=#82b366;" parent="t3KPmfPiuo9anuLnNl-u-21" vertex="1">
          <mxGeometry x="161" y="130" width="120" height="60" as="geometry" />
        </mxCell>
        <mxCell id="t3KPmfPiuo9anuLnNl-u-60" value="Payment Service (127.0.0.1:23004)" style="swimlane;whiteSpace=wrap;html=1;fontSize=16;" parent="t3KPmfPiuo9anuLnNl-u-12" vertex="1">
          <mxGeometry x="514" y="240" width="306" height="320" as="geometry" />
        </mxCell>
        <mxCell id="t3KPmfPiuo9anuLnNl-u-61" style="edgeStyle=none;curved=1;rounded=0;orthogonalLoop=1;jettySize=auto;html=1;exitX=0.25;exitY=1;exitDx=0;exitDy=0;entryX=0;entryY=0;entryDx=0;entryDy=15;entryPerimeter=0;fontSize=12;startSize=8;endSize=8;" parent="t3KPmfPiuo9anuLnNl-u-60" source="t3KPmfPiuo9anuLnNl-u-63" target="t3KPmfPiuo9anuLnNl-u-65" edge="1">
          <mxGeometry relative="1" as="geometry" />
        </mxCell>
        <mxCell id="t3KPmfPiuo9anuLnNl-u-62" style="edgeStyle=none;curved=1;rounded=0;orthogonalLoop=1;jettySize=auto;html=1;exitX=1;exitY=0.25;exitDx=0;exitDy=0;entryX=0.25;entryY=0;entryDx=0;entryDy=0;fontSize=12;startSize=8;endSize=8;" parent="t3KPmfPiuo9anuLnNl-u-60" source="t3KPmfPiuo9anuLnNl-u-63" target="t3KPmfPiuo9anuLnNl-u-67" edge="1">
          <mxGeometry relative="1" as="geometry" />
        </mxCell>
        <mxCell id="t3KPmfPiuo9anuLnNl-u-63" value="Tomcat Server" style="rounded=1;whiteSpace=wrap;html=1;fontSize=16;fillColor=#b1ddf0;strokeColor=#10739e;" parent="t3KPmfPiuo9anuLnNl-u-60" vertex="1">
          <mxGeometry x="10" y="40" width="105" height="50" as="geometry" />
        </mxCell>
        <mxCell id="t3KPmfPiuo9anuLnNl-u-64" style="edgeStyle=none;curved=1;rounded=0;orthogonalLoop=1;jettySize=auto;html=1;exitX=1;exitY=0;exitDx=0;exitDy=15;exitPerimeter=0;entryX=0.75;entryY=1;entryDx=0;entryDy=0;fontSize=12;startSize=8;endSize=8;fillColor=#60a917;strokeColor=#2D7600;" parent="t3KPmfPiuo9anuLnNl-u-60" source="t3KPmfPiuo9anuLnNl-u-65" target="t3KPmfPiuo9anuLnNl-u-63" edge="1">
          <mxGeometry relative="1" as="geometry" />
        </mxCell>
        <mxCell id="t3KPmfPiuo9anuLnNl-u-65" value="Payment Database&lt;br&gt;Clusters" style="shape=cylinder3;whiteSpace=wrap;html=1;boundedLbl=1;backgroundOutline=1;size=15;fontSize=16;fillColor=#fad9d5;strokeColor=#ae4132;" parent="t3KPmfPiuo9anuLnNl-u-60" vertex="1">
          <mxGeometry x="17.5" y="180" width="90" height="100" as="geometry" />
        </mxCell>
        <mxCell id="t3KPmfPiuo9anuLnNl-u-66" style="edgeStyle=none;curved=1;rounded=0;orthogonalLoop=1;jettySize=auto;html=1;exitX=0;exitY=0.25;exitDx=0;exitDy=0;entryX=0.923;entryY=0.967;entryDx=0;entryDy=0;entryPerimeter=0;fontSize=12;startSize=8;endSize=8;fillColor=#60a917;strokeColor=#2D7600;" parent="t3KPmfPiuo9anuLnNl-u-60" source="t3KPmfPiuo9anuLnNl-u-67" target="t3KPmfPiuo9anuLnNl-u-63" edge="1">
          <mxGeometry relative="1" as="geometry" />
        </mxCell>
        <mxCell id="t3KPmfPiuo9anuLnNl-u-67" value="Feign-API" style="rounded=1;whiteSpace=wrap;html=1;fontSize=16;fillColor=#d5e8d4;strokeColor=#82b366;" parent="t3KPmfPiuo9anuLnNl-u-60" vertex="1">
          <mxGeometry x="161" y="130" width="120" height="60" as="geometry" />
        </mxCell>
        <mxCell id="t3KPmfPiuo9anuLnNl-u-69" value="Patient Service (127.0.0.1:23001)" style="swimlane;whiteSpace=wrap;html=1;fontSize=16;" parent="t3KPmfPiuo9anuLnNl-u-12" vertex="1">
          <mxGeometry x="36" y="610" width="306" height="320" as="geometry" />
        </mxCell>
        <mxCell id="t3KPmfPiuo9anuLnNl-u-70" style="edgeStyle=none;curved=1;rounded=0;orthogonalLoop=1;jettySize=auto;html=1;exitX=0.25;exitY=1;exitDx=0;exitDy=0;entryX=0;entryY=0;entryDx=0;entryDy=15;entryPerimeter=0;fontSize=12;startSize=8;endSize=8;" parent="t3KPmfPiuo9anuLnNl-u-69" source="t3KPmfPiuo9anuLnNl-u-72" target="t3KPmfPiuo9anuLnNl-u-74" edge="1">
          <mxGeometry relative="1" as="geometry" />
        </mxCell>
        <mxCell id="t3KPmfPiuo9anuLnNl-u-72" value="Tomcat Server" style="rounded=1;whiteSpace=wrap;html=1;fontSize=16;fillColor=#b1ddf0;strokeColor=#10739e;" parent="t3KPmfPiuo9anuLnNl-u-69" vertex="1">
          <mxGeometry x="100.5" y="50" width="105" height="50" as="geometry" />
        </mxCell>
        <mxCell id="t3KPmfPiuo9anuLnNl-u-73" style="edgeStyle=none;curved=1;rounded=0;orthogonalLoop=1;jettySize=auto;html=1;exitX=1;exitY=0;exitDx=0;exitDy=15;exitPerimeter=0;entryX=0.75;entryY=1;entryDx=0;entryDy=0;fontSize=12;startSize=8;endSize=8;fillColor=#60a917;strokeColor=#2D7600;" parent="t3KPmfPiuo9anuLnNl-u-69" source="t3KPmfPiuo9anuLnNl-u-74" target="t3KPmfPiuo9anuLnNl-u-72" edge="1">
          <mxGeometry relative="1" as="geometry" />
        </mxCell>
        <mxCell id="t3KPmfPiuo9anuLnNl-u-74" value="Patient Database&lt;br&gt;Clusters" style="shape=cylinder3;whiteSpace=wrap;html=1;boundedLbl=1;backgroundOutline=1;size=15;fontSize=16;fillColor=#fad9d5;strokeColor=#ae4132;" parent="t3KPmfPiuo9anuLnNl-u-69" vertex="1">
          <mxGeometry x="100.5" y="180" width="90" height="100" as="geometry" />
        </mxCell>
        <mxCell id="t3KPmfPiuo9anuLnNl-u-85" value="Doctor Service (127.0.0.1:23002)" style="swimlane;whiteSpace=wrap;html=1;fontSize=16;" parent="t3KPmfPiuo9anuLnNl-u-12" vertex="1">
          <mxGeometry x="514" y="610" width="306" height="320" as="geometry" />
        </mxCell>
        <mxCell id="t3KPmfPiuo9anuLnNl-u-86" style="edgeStyle=none;curved=1;rounded=0;orthogonalLoop=1;jettySize=auto;html=1;exitX=0.25;exitY=1;exitDx=0;exitDy=0;entryX=0;entryY=0;entryDx=0;entryDy=15;entryPerimeter=0;fontSize=12;startSize=8;endSize=8;" parent="t3KPmfPiuo9anuLnNl-u-85" source="t3KPmfPiuo9anuLnNl-u-87" target="t3KPmfPiuo9anuLnNl-u-89" edge="1">
          <mxGeometry relative="1" as="geometry" />
        </mxCell>
        <mxCell id="t3KPmfPiuo9anuLnNl-u-87" value="Tomcat Server" style="rounded=1;whiteSpace=wrap;html=1;fontSize=16;fillColor=#b1ddf0;strokeColor=#10739e;" parent="t3KPmfPiuo9anuLnNl-u-85" vertex="1">
          <mxGeometry x="100.5" y="50" width="105" height="50" as="geometry" />
        </mxCell>
        <mxCell id="t3KPmfPiuo9anuLnNl-u-88" style="edgeStyle=none;curved=1;rounded=0;orthogonalLoop=1;jettySize=auto;html=1;exitX=1;exitY=0;exitDx=0;exitDy=15;exitPerimeter=0;entryX=0.75;entryY=1;entryDx=0;entryDy=0;fontSize=12;startSize=8;endSize=8;fillColor=#60a917;strokeColor=#2D7600;" parent="t3KPmfPiuo9anuLnNl-u-85" source="t3KPmfPiuo9anuLnNl-u-89" target="t3KPmfPiuo9anuLnNl-u-87" edge="1">
          <mxGeometry relative="1" as="geometry" />
        </mxCell>
        <mxCell id="t3KPmfPiuo9anuLnNl-u-89" value="Doctor Database&lt;br&gt;Clusters" style="shape=cylinder3;whiteSpace=wrap;html=1;boundedLbl=1;backgroundOutline=1;size=15;fontSize=16;fillColor=#fad9d5;strokeColor=#ae4132;" parent="t3KPmfPiuo9anuLnNl-u-85" vertex="1">
          <mxGeometry x="100.5" y="180" width="90" height="100" as="geometry" />
        </mxCell>
        <mxCell id="t3KPmfPiuo9anuLnNl-u-90" style="edgeStyle=none;curved=1;rounded=0;orthogonalLoop=1;jettySize=auto;html=1;exitX=0.25;exitY=1;exitDx=0;exitDy=0;entryX=0.25;entryY=0;entryDx=0;entryDy=0;fontSize=12;startSize=8;endSize=8;" parent="t3KPmfPiuo9anuLnNl-u-12" source="t3KPmfPiuo9anuLnNl-u-57" target="t3KPmfPiuo9anuLnNl-u-72" edge="1">
          <mxGeometry relative="1" as="geometry" />
        </mxCell>
        <mxCell id="t3KPmfPiuo9anuLnNl-u-91" style="edgeStyle=none;curved=1;rounded=0;orthogonalLoop=1;jettySize=auto;html=1;exitX=0.75;exitY=0;exitDx=0;exitDy=0;entryX=0.5;entryY=1;entryDx=0;entryDy=0;fontSize=12;startSize=8;endSize=8;fillColor=#60a917;strokeColor=#2D7600;" parent="t3KPmfPiuo9anuLnNl-u-12" source="t3KPmfPiuo9anuLnNl-u-72" target="t3KPmfPiuo9anuLnNl-u-57" edge="1">
          <mxGeometry relative="1" as="geometry" />
        </mxCell>
        <mxCell id="t3KPmfPiuo9anuLnNl-u-92" style="edgeStyle=none;curved=1;rounded=0;orthogonalLoop=1;jettySize=auto;html=1;exitX=1;exitY=1;exitDx=0;exitDy=0;entryX=0.25;entryY=0;entryDx=0;entryDy=0;fontSize=12;startSize=8;endSize=8;" parent="t3KPmfPiuo9anuLnNl-u-12" source="t3KPmfPiuo9anuLnNl-u-57" target="t3KPmfPiuo9anuLnNl-u-87" edge="1">
          <mxGeometry relative="1" as="geometry" />
        </mxCell>
        <mxCell id="t3KPmfPiuo9anuLnNl-u-94" style="edgeStyle=none;curved=1;rounded=0;orthogonalLoop=1;jettySize=auto;html=1;exitX=0;exitY=0.5;exitDx=0;exitDy=0;entryX=0.75;entryY=1;entryDx=0;entryDy=0;fontSize=12;startSize=8;endSize=8;" parent="t3KPmfPiuo9anuLnNl-u-12" source="t3KPmfPiuo9anuLnNl-u-87" target="t3KPmfPiuo9anuLnNl-u-57" edge="1">
          <mxGeometry relative="1" as="geometry" />
        </mxCell>
        <mxCell id="t3KPmfPiuo9anuLnNl-u-111" style="edgeStyle=none;curved=1;rounded=0;orthogonalLoop=1;jettySize=auto;html=1;exitX=0.5;exitY=1;exitDx=0;exitDy=0;entryX=1;entryY=0;entryDx=0;entryDy=0;fontSize=12;startSize=8;endSize=8;" parent="t3KPmfPiuo9anuLnNl-u-12" source="t3KPmfPiuo9anuLnNl-u-67" target="t3KPmfPiuo9anuLnNl-u-72" edge="1">
          <mxGeometry relative="1" as="geometry" />
        </mxCell>
        <mxCell id="t3KPmfPiuo9anuLnNl-u-112" style="edgeStyle=none;curved=1;rounded=0;orthogonalLoop=1;jettySize=auto;html=1;exitX=1;exitY=0.75;exitDx=0;exitDy=0;entryX=0.862;entryY=1.017;entryDx=0;entryDy=0;entryPerimeter=0;fontSize=12;startSize=8;endSize=8;fillColor=#60a917;strokeColor=#2D7600;" parent="t3KPmfPiuo9anuLnNl-u-12" source="t3KPmfPiuo9anuLnNl-u-72" target="t3KPmfPiuo9anuLnNl-u-67" edge="1">
          <mxGeometry relative="1" as="geometry" />
        </mxCell>
        <mxCell id="t3KPmfPiuo9anuLnNl-u-113" style="edgeStyle=none;curved=1;rounded=0;orthogonalLoop=1;jettySize=auto;html=1;exitX=1;exitY=0;exitDx=0;exitDy=0;entryX=0;entryY=0.25;entryDx=0;entryDy=0;fontSize=12;startSize=8;endSize=8;" parent="t3KPmfPiuo9anuLnNl-u-12" source="t3KPmfPiuo9anuLnNl-u-57" target="t3KPmfPiuo9anuLnNl-u-63" edge="1">
          <mxGeometry relative="1" as="geometry" />
        </mxCell>
        <mxCell id="t3KPmfPiuo9anuLnNl-u-114" style="edgeStyle=none;curved=1;rounded=0;orthogonalLoop=1;jettySize=auto;html=1;exitX=0;exitY=1;exitDx=0;exitDy=0;entryX=1;entryY=0.5;entryDx=0;entryDy=0;fontSize=12;startSize=8;endSize=8;fillColor=#60a917;strokeColor=#2D7600;" parent="t3KPmfPiuo9anuLnNl-u-12" source="t3KPmfPiuo9anuLnNl-u-63" target="t3KPmfPiuo9anuLnNl-u-57" edge="1">
          <mxGeometry relative="1" as="geometry" />
        </mxCell>
        <mxCell id="ogTgEn3JlV6PT00TCn8N-4" style="edgeStyle=none;curved=1;rounded=0;orthogonalLoop=1;jettySize=auto;html=1;exitX=0.25;exitY=1;exitDx=0;exitDy=0;entryX=0.5;entryY=0;entryDx=0;entryDy=0;fontSize=12;startSize=8;endSize=8;" edge="1" parent="t3KPmfPiuo9anuLnNl-u-12" source="ogTgEn3JlV6PT00TCn8N-3" target="t3KPmfPiuo9anuLnNl-u-23">
          <mxGeometry relative="1" as="geometry" />
        </mxCell>
        <mxCell id="ogTgEn3JlV6PT00TCn8N-5" style="edgeStyle=none;curved=1;rounded=0;orthogonalLoop=1;jettySize=auto;html=1;exitX=0.5;exitY=1;exitDx=0;exitDy=0;entryX=0.75;entryY=0;entryDx=0;entryDy=0;fontSize=12;startSize=8;endSize=8;" edge="1" parent="t3KPmfPiuo9anuLnNl-u-12" source="ogTgEn3JlV6PT00TCn8N-3" target="t3KPmfPiuo9anuLnNl-u-72">
          <mxGeometry relative="1" as="geometry" />
        </mxCell>
        <mxCell id="ogTgEn3JlV6PT00TCn8N-6" style="edgeStyle=none;curved=1;rounded=0;orthogonalLoop=1;jettySize=auto;html=1;exitX=0.75;exitY=1;exitDx=0;exitDy=0;entryX=0.75;entryY=0;entryDx=0;entryDy=0;fontSize=12;startSize=8;endSize=8;" edge="1" parent="t3KPmfPiuo9anuLnNl-u-12" source="ogTgEn3JlV6PT00TCn8N-3" target="t3KPmfPiuo9anuLnNl-u-63">
          <mxGeometry relative="1" as="geometry" />
        </mxCell>
        <mxCell id="ogTgEn3JlV6PT00TCn8N-7" style="edgeStyle=none;curved=1;rounded=0;orthogonalLoop=1;jettySize=auto;html=1;exitX=0.5;exitY=1;exitDx=0;exitDy=0;entryX=0.25;entryY=0;entryDx=0;entryDy=0;fontSize=12;startSize=8;endSize=8;" edge="1" parent="t3KPmfPiuo9anuLnNl-u-12" source="ogTgEn3JlV6PT00TCn8N-3" target="t3KPmfPiuo9anuLnNl-u-87">
          <mxGeometry relative="1" as="geometry" />
        </mxCell>
        <mxCell id="ogTgEn3JlV6PT00TCn8N-3" value="Gateway Service (127.0.0.1:20080)" style="rounded=1;whiteSpace=wrap;html=1;fontSize=16;fillColor=#fad7ac;strokeColor=#b46504;" vertex="1" parent="t3KPmfPiuo9anuLnNl-u-12">
          <mxGeometry x="94" y="80" width="668" height="60" as="geometry" />
        </mxCell>
        <mxCell id="ogTgEn3JlV6PT00TCn8N-13" value="Routing &amp;amp; Load Balancing&lt;br&gt;" style="text;html=1;strokeColor=none;fillColor=none;align=center;verticalAlign=middle;whiteSpace=wrap;rounded=0;fontSize=16;" vertex="1" parent="t3KPmfPiuo9anuLnNl-u-12">
          <mxGeometry x="782" y="95" width="60" height="30" as="geometry" />
        </mxCell>
        <mxCell id="t3KPmfPiuo9anuLnNl-u-68" style="edgeStyle=none;curved=1;rounded=0;orthogonalLoop=1;jettySize=auto;html=1;exitX=1;exitY=0;exitDx=0;exitDy=0;fontSize=12;startSize=8;endSize=8;" parent="1" source="t3KPmfPiuo9anuLnNl-u-12" target="t3KPmfPiuo9anuLnNl-u-12" edge="1">
          <mxGeometry relative="1" as="geometry" />
        </mxCell>
        <mxCell id="t3KPmfPiuo9anuLnNl-u-100" value="Routing &amp;amp; Load Balancing&lt;br&gt;" style="text;html=1;strokeColor=none;fillColor=none;align=center;verticalAlign=middle;whiteSpace=wrap;rounded=0;fontSize=16;" parent="1" vertex="1">
          <mxGeometry x="1730" y="760" width="60" height="30" as="geometry" />
        </mxCell>
        <mxCell id="ogTgEn3JlV6PT00TCn8N-15" value="Distributed Log" style="rounded=0;whiteSpace=wrap;html=1;fontSize=16;fillColor=#bac8d3;strokeColor=#23445d;" vertex="1" parent="1">
          <mxGeometry x="2820" y="270" width="120" height="1160" as="geometry" />
        </mxCell>
        <mxCell id="ogTgEn3JlV6PT00TCn8N-10" style="edgeStyle=none;curved=1;rounded=0;orthogonalLoop=1;jettySize=auto;html=1;exitX=0.25;exitY=0;exitDx=0;exitDy=0;fontSize=12;startSize=8;endSize=8;" edge="1" parent="1" source="jPvqtnYLJRj_eyyXHJ-Q-3" target="t3KPmfPiuo9anuLnNl-u-102">
          <mxGeometry relative="1" as="geometry" />
        </mxCell>
        <mxCell id="ogTgEn3JlV6PT00TCn8N-11" style="edgeStyle=none;curved=1;rounded=0;orthogonalLoop=1;jettySize=auto;html=1;exitX=0.5;exitY=0;exitDx=0;exitDy=0;entryX=1;entryY=1;entryDx=0;entryDy=0;fontSize=12;startSize=8;endSize=8;" edge="1" parent="1" source="jPvqtnYLJRj_eyyXHJ-Q-3" target="t3KPmfPiuo9anuLnNl-u-109">
          <mxGeometry relative="1" as="geometry" />
        </mxCell>
        <mxCell id="ogTgEn3JlV6PT00TCn8N-12" style="edgeStyle=none;curved=1;rounded=0;orthogonalLoop=1;jettySize=auto;html=1;exitX=0.75;exitY=0;exitDx=0;exitDy=0;entryX=1;entryY=0.5;entryDx=0;entryDy=0;fontSize=12;startSize=8;endSize=8;" edge="1" parent="1" source="jPvqtnYLJRj_eyyXHJ-Q-3" target="t3KPmfPiuo9anuLnNl-u-107">
          <mxGeometry relative="1" as="geometry" />
        </mxCell>
        <mxCell id="ogTgEn3JlV6PT00TCn8N-9" style="edgeStyle=none;curved=1;rounded=0;orthogonalLoop=1;jettySize=auto;html=1;exitX=0;exitY=0.5;exitDx=0;exitDy=0;entryX=1;entryY=1;entryDx=0;entryDy=0;fontSize=12;startSize=8;endSize=8;" edge="1" parent="1" source="jPvqtnYLJRj_eyyXHJ-Q-3" target="t3KPmfPiuo9anuLnNl-u-108">
          <mxGeometry relative="1" as="geometry" />
        </mxCell>
      </root>
    </mxGraphModel>
  </diagram>
</mxfile>
